<?xml version="1.0" standalone="no"?>
<!DOCTYPE svg PUBLIC "-//W3C//DTD SVG 20010904//EN"
 "http://www.w3.org/TR/2001/REC-SVG-20010904/DTD/svg10.dtd">
<svg version="1.0" xmlns="http://www.w3.org/2000/svg"
 width="2925.000000pt" height="2925.000000pt" viewBox="0 0 2925.000000 2925.000000"
 preserveAspectRatio="xMidYMid meet">
<metadata>
Created by potrace 1.14, written by Peter Selinger 2001-2017
</metadata>
<g transform="translate(0.000000,2925.000000) scale(0.100000,-0.100000)"
fill="#000000" stroke="none">
<path d="M24021 29155 c-1 -6 -55 -96 -120 -200 -66 -105 -233 -372 -373 -594
-139 -223 -294 -470 -345 -550 -50 -80 -138 -220 -194 -311 -57 -91 -144 -230
-194 -310 -51 -80 -137 -216 -191 -303 -131 -209 -793 -1264 -1124 -1792 -145
-231 -358 -571 -473 -755 -488 -779 -632 -1008 -662 -1055 -31 -48 -133 -211
-185 -295 -14 -23 -135 -216 -270 -431 -135 -214 -261 -415 -281 -447 -37 -60
-471 -751 -775 -1237 -101 -159 -222 -353 -270 -430 -48 -77 -185 -295 -304
-485 -312 -497 -825 -1316 -953 -1520 -60 -96 -124 -197 -142 -225 -30 -46
-334 -532 -416 -663 -70 -113 -493 -788 -524 -837 -17 -27 -60 -95 -95 -150
-34 -55 -64 -102 -65 -103 -2 -2 -189 121 -417 274 -227 152 -561 377 -743
499 -181 122 -550 369 -820 550 -269 181 -645 433 -835 560 -190 127 -545 366
-790 530 -245 164 -479 322 -522 352 -42 29 -81 53 -86 53 -6 0 -12 3 -14 8
-1 4 -147 104 -323 221 -176 118 -475 319 -665 446 -567 381 -585 393 -587
391 -1 -1 -1141 -4557 -2533 -10125 -1392 -5568 -2533 -10129 -2537 -10135 -3
-6 1 -4 9 4 8 8 75 109 148 225 156 245 266 418 360 565 256 398 410 643 410
651 0 5 4 9 9 9 5 0 16 15 25 32 9 18 106 173 216 343 110 171 209 326 220
345 11 19 43 69 70 110 27 41 59 91 70 110 11 19 33 54 48 77 15 23 72 112
127 198 55 85 121 188 147 228 26 39 53 82 60 95 7 12 40 64 72 115 33 51 74
115 91 142 126 198 417 654 459 719 28 44 86 134 128 200 42 67 116 183 165
259 119 187 104 163 223 352 20 32 191 300 255 400 28 44 74 115 101 158 27
42 85 133 129 202 44 68 104 162 132 207 29 46 93 146 142 223 78 122 133 208
191 300 8 14 132 208 275 431 316 494 402 629 455 714 23 36 81 128 131 205
134 210 152 238 427 670 140 220 279 438 309 485 30 47 146 229 258 405 112
176 209 325 214 332 6 7 11 14 11 16 0 3 51 85 114 183 63 99 213 333 333 521
120 188 235 368 255 400 20 32 55 87 78 123 49 77 229 361 475 745 98 154 277
435 398 625 120 190 231 364 247 387 l27 42 89 -68 c49 -37 188 -144 309 -237
121 -93 238 -182 260 -198 22 -17 42 -33 45 -36 3 -3 21 -17 40 -30 19 -14 44
-32 55 -42 16 -14 221 -171 339 -261 43 -33 408 -313 506 -388 47 -36 319
-245 605 -464 286 -219 558 -428 604 -464 46 -35 213 -163 370 -283 157 -120
293 -224 301 -231 8 -7 98 -75 198 -152 101 -77 257 -196 345 -265 89 -69 178
-136 197 -150 19 -13 37 -27 40 -30 3 -4 68 -55 145 -113 77 -59 205 -157 285
-218 80 -61 170 -130 200 -153 30 -22 57 -43 60 -47 15 -16 463 -354 469 -352
5 2 23 63 35 118 2 11 12 47 21 80 22 81 75 286 80 307 4 17 150 582 205 793
31 115 108 414 115 445 2 8 27 103 55 210 28 107 53 204 56 215 2 11 31 124
64 250 33 127 63 241 66 255 2 14 8 34 11 45 4 11 8 25 9 30 1 6 25 100 54
210 29 110 63 242 76 293 13 51 62 241 109 423 48 182 88 338 90 347 11 49 64
249 69 262 3 8 8 26 10 40 3 14 25 102 49 195 25 94 75 287 112 430 37 143 87
337 112 430 24 94 46 177 48 185 1 8 11 44 20 80 9 36 18 72 20 80 2 8 28 110
58 225 48 183 152 582 162 625 2 8 16 60 30 115 15 55 28 107 30 115 2 8 17
67 33 130 52 197 124 474 127 490 2 8 12 49 23 90 23 86 70 264 137 525 26 99
74 284 107 410 33 127 61 237 63 245 2 9 21 85 44 170 22 85 56 216 75 290 19
74 53 207 76 295 23 88 43 165 44 170 1 6 5 19 9 30 3 11 8 31 11 45 6 31 7
33 51 200 19 74 37 144 40 155 2 11 25 99 50 195 44 166 102 387 109 420 5 19
228 878 268 1030 16 63 31 122 33 130 2 8 33 130 70 270 36 140 68 262 70 270
2 8 22 87 45 175 56 216 151 586 155 605 2 8 11 42 20 75 15 55 61 230 69 265
2 8 12 44 21 80 9 36 18 72 20 80 2 8 24 94 50 190 25 96 48 182 50 190 2 9
26 106 55 215 28 110 53 207 55 215 2 8 13 51 25 95 45 169 199 767 205 795 2
8 23 87 46 175 23 88 63 243 89 345 27 102 72 275 100 385 29 110 53 205 54
210 1 6 5 19 9 30 3 11 8 31 11 45 3 14 32 126 64 250 55 209 68 261 77 300 2
8 13 51 25 95 12 44 23 87 25 95 2 8 13 50 25 92 11 43 23 85 25 95 2 10 20
81 40 158 20 77 38 147 40 156 2 9 24 96 50 195 26 98 49 187 51 197 6 27 8
33 98 377 46 179 108 415 136 525 28 110 63 243 76 295 94 359 126 487 130
504 2 10 8 33 14 51 6 18 12 41 14 51 5 26 121 472 157 608 16 60 28 114 25
120 -3 7 -5 7 -5 1z"/>
</g>
</svg>
